<svg xmlns="http://www.w3.org/2000/svg" width="47" height="47" viewBox="0 0 12.4 12.4"><path d="M1.6 12.2c-.7-.1-1-.3-1.4-.6C0 11.4 0 11.4 0 9V6.4l.3-.2A7 7 0 0 1 4 5.4l.8-.1V3c0-2.2 0-2.3.7-2.6C6 .1 7 0 8.6 0c2 0 3 .2 3.6.8l.2.2V9l-.3.2c-.4.4-1.5.7-3 .7l-1.4.1v.8c0 1-.3 1.2-1.6 1.6-1 .2-3.5.2-4.5 0zm4.7-.6l.6-.3c.2-.2.2-.6 0-.7l-.7.2a12.7 12.7 0 0 1-5.5-.2c-.2.1-.1.5.1.7l.8.3c1 .3 4 .3 4.7 0zM6 10.2c.8-.2 1.2-.5 1.2-.8 0-.3-.2-.3-1 0-.7.2-4 .2-4.7 0-.6-.3-.8-.3-.8 0l.1.5c.7.5 3.7.7 5.2.3zM11 9c.7-.2 1-.4 1-.7 0-.4-.2-.4-1-.2l-1.8.3H7.7v.4c0 .2 0 .3.2.4.3.1 2.3 0 3-.2zM5.3 9c1-.1 1.7-.5 1.8-.8 0-.4-.2-.5-.7-.3a10.7 10.7 0 0 1-5.2 0c-.4-.1-.6 0-.6.2 0 .4.1.5.6.6.9.4 2.7.5 4.1.3zM11 7.5c.7-.2 1-.4 1-.6 0-.4-.2-.4-.8-.3-.5.2-2.6.4-2.8.4-.5-.2-.8.5-.4.7.2.2 2.4 0 3-.2zm-5.6 0c2.2-.4 2.2-1 .1-1.3a9.4 9.4 0 0 0-4.4.3c-.7.3-.2.7 1.3 1a9 9 0 0 0 3 0zM10 6.3c1.3-.2 1.8-.4 1.8-.8s0-.5-.4-.4c-.3.2-1.9.4-2.8.4a16 16 0 0 1-3-.3l-.2.1c0 .2 0 .2.2.3.7.1 1.2.3 1.5.5l.6.2H10zm.4-1.5c1-.2 1.4-.4 1.4-.8s0-.4-.2-.3c-2.5.6-3.5.6-6 0-.2 0-.3 0-.2.3 0 .2 0 .3.3.5.8.4 3.3.6 4.7.3zm.2-1.5c1-.2 1.2-.4 1.2-.7 0-.4-.1-.5-.3-.3a11.2 11.2 0 0 1-5.9 0c-.3-.1-.3.3 0 .6.1.2.9.4 1.7.6.7 0 2.6 0 3.3-.2zm.3-1.5c.6-.2 1-.4.8-.6l-.6-.3C10.3.6 7.6.5 6.6.7 5 1.1 5 1.5 6.6 2c1 .2 3.5.2 4.3 0z" fill="#0082ac"/></svg>
